<?xml version="1.0" encoding="UTF-8" standalone="no"?>
<svg
   width="180"
   height="32"
   viewBox="0 0 831 147"
   fill="none"
   version="1.1"
   id="svg1"
   sodipodi:docname="cu.svg"
   inkscape:version="1.4.2 (ebf0e940, 2025-05-08)"
   xmlns:inkscape="http://www.inkscape.org/namespaces/inkscape"
   xmlns:sodipodi="http://sodipodi.sourceforge.net/DTD/sodipodi-0.dtd"
   xmlns="http://www.w3.org/2000/svg"
   xmlns:svg="http://www.w3.org/2000/svg">
  <defs
     id="defs1" />
  <sodipodi:namedview
     id="namedview1"
     pagecolor="#ffffff"
     bordercolor="#000000"
     borderopacity="0.25"
     inkscape:showpageshadow="2"
     inkscape:pageopacity="0.0"
     inkscape:pagecheckerboard="0"
     inkscape:deskcolor="#d1d1d1"
     inkscape:zoom="4.3759621"
     inkscape:cx="106.37661"
     inkscape:cy="-32.107225"
     inkscape:window-width="1472"
     inkscape:window-height="894"
     inkscape:window-x="0"
     inkscape:window-y="34"
     inkscape:window-maximized="0"
     inkscape:current-layer="svg1" />
  <path
     d="m 151.803,64.0314 -43.291,27.5477 v 51.5389 l -6.218,3.695 -35.0627,-19.454 8.1038,-5.153 24.7989,13.749 V 96.8951 L 59.2648,122.922 0.402588,90.4606 V 83.1967 L 43.6814,55.6489 V 4.09746 L 49.8998,0.402649 108.5,32.9019 V 81.5881 L 141.302,60.7136 116.479,46.9649 v -9.6392 l 35.312,19.4417 0.012,6.6333 z M 96.0755,89.5055 48.0392,62.8752 10.9039,86.5145 49.9247,108.13 58.9651,113.132 96.0879,89.5055 Z M 100.121,37.8912 52.0724,11.2483 V 55.473 L 100.109,82.1033 V 37.8912 Z M 227.573,74.211 h 11.55 V 54.1911 h -6.106 V 18.7134 H 220.68 V 54.1911 H 197.767 V 18.7134 H 185.43 v 45.5945 h 42.143 v 9.9157 z m 21.889,-55.4976 v 45.5945 h 41.555 v -9.5135 h -29.218 v -9.1868 h 22.326 v -9.1868 h -22.326 v -8.1939 h 28.956 v -9.5135 z m 52.768,0 v 45.5945 h 12.337 V 45.9343 h 24.025 v 18.3736 h 12.336 V 18.7134 H 338.592 V 35.8302 H 314.567 V 18.7134 Z m 76.044,10.1041 v 35.4778 h 12.337 V 28.8175 h 17.993 V 18.7134 h -48.323 v 10.1041 z m 39.833,-10.1041 v 45.5945 h 12.337 V 50.2324 h 18.58 c 5.581,0 9.777,-1.3824 12.474,-4.1598 2.697,-2.7774 4.008,-6.6733 4.008,-11.7003 0,-5.0269 -1.311,-8.7217 -4.008,-11.4991 -2.685,-2.7774 -6.893,-4.1598 -12.474,-4.1598 z m 34.863,16.6518 c 0,2.4883 -0.974,5.2154 -5.707,5.2154 H 430.456 V 28.3525 h 16.807 c 4.183,0 5.707,2.325 5.707,5.1527 v 1.8474 z m 30.654,-16.6518 -19.566,45.5945 h 11.55 l 4.27,-10.1042 h 23.113 l 4.271,10.1042 h 12.873 L 500.631,18.7134 Z m 0.063,26.492 7.741,-18.3735 7.742,18.3735 h -15.496 z m 43.516,8.194 v 10.8959 h 3.409 c 3.284,0 5.981,-0.465 8.078,-1.4578 2.036,-0.93 3.672,-2.4506 4.92,-4.562 1.186,-2.0485 1.973,-4.8259 2.435,-8.2568 0.462,-3.368 0.662,-7.5278 0.662,-12.4165 v -8.7847 h 18.78 v 35.4778 h 12.337 V 18.7134 h -42.605 v 18.9013 c 0,5.4794 -0.399,9.5135 -1.186,12.027 -0.849,2.5135 -2.697,3.7702 -5.582,3.7702 h -1.248 z m 61.547,-34.686 v 45.5945 h 30.854 c 5.582,0 9.777,-1.3824 12.474,-4.1598 2.685,-2.7774 4.009,-6.6105 4.009,-11.4992 0,-4.8887 -1.312,-8.86 -4.009,-11.6248 -2.697,-2.7774 -6.892,-4.1599 -12.474,-4.1599 H 601.086 V 18.7259 H 588.75 Z m 34.787,30.8529 c 0,1.5207 -0.462,2.7146 -1.373,3.5692 -0.987,0.93 -2.435,1.3824 -4.458,1.3824 H 601.099 V 42.6291 h 16.607 c 2.036,0 3.484,0.465 4.458,1.3196 0.924,0.93 1.373,2.1113 1.373,3.5691 z m 20.941,-30.8529 v 45.5945 h 12.336 V 45.9343 h 24.025 v 18.3736 h 12.337 V 18.7134 H 680.839 V 35.8302 H 656.814 V 18.7134 Z m 60.198,0 v 45.5945 h 30.854 c 5.582,0 9.777,-1.3824 12.475,-4.1598 2.684,-2.7774 4.008,-6.6105 4.008,-11.4992 0,-4.8887 -1.311,-8.86 -4.008,-11.6248 -2.698,-2.7774 -6.893,-4.1599 -12.475,-4.1599 H 717.013 V 18.7259 h -12.337 z m 34.788,30.8529 c 0,1.5207 -0.462,2.7146 -1.374,3.5692 -0.986,0.93 -2.435,1.3824 -4.458,1.3824 H 717.025 V 42.6291 h 16.607 c 2.036,0 3.484,0.465 4.458,1.3196 0.924,0.93 1.374,2.1113 1.374,3.5691 z M 200.639,132.737 h 12.074 l 26.66,-45.5942 h -12.15 L 213.825,110.141 198.928,87.1428 h -13.585 l 22.051,33.9572 -6.755,11.625 z m 46.138,-45.5942 v 45.5942 h 12.337 v -18.373 h 24.024 v 18.373 h 12.337 V 87.1428 H 283.138 V 104.26 H 259.114 V 87.1428 Z M 344.922,102.4 v 30.325 h 12.337 V 87.1303 H 343.998 L 319.774,117.455 V 87.1303 h -12.337 v 45.5947 h 13.261 z m 24.349,-15.2572 v 45.5942 h 31.442 c 4.994,0 8.728,-1.118 11.225,-3.431 2.435,-2.312 3.671,-5.617 3.671,-9.915 0,-2.639 -0.661,-4.889 -2.035,-6.799 -1.373,-1.91 -3.609,-3.243 -6.693,-4.034 2.76,-0.93 4.658,-2.313 5.782,-4.223 1.048,-1.847 1.573,-3.896 1.573,-6.1454 0,-3.632 -1.249,-6.4094 -3.671,-8.2568 -2.435,-1.8474 -5.969,-2.7774 -10.502,-2.7774 h -30.792 z m 32.628,13.7492 c 0,1.52 -0.462,2.639 -1.374,3.43 -0.986,0.792 -2.297,1.194 -4.07,1.194 H 381.483 V 95.274 h 14.972 c 1.773,0 3.084,0.4021 4.07,1.1185 0.924,0.7289 1.374,1.8474 1.374,3.2423 z m 1.374,18.763 c 0,1.646 -0.525,2.84 -1.574,3.695 -1.049,0.854 -2.56,1.256 -4.458,1.256 h -15.758 v -11.361 h 15.758 c 1.973,0 3.484,0.402 4.533,1.194 0.987,0.855 1.511,1.986 1.511,3.507 v 1.721 z m 22.188,-32.5122 v 45.5942 h 41.556 v -9.513 h -29.219 v -9.187 h 22.326 v -9.187 h -22.326 v -8.1936 h 28.957 v -9.5136 z m 51.595,0 v 45.5942 h 12.337 v -14.075 h 18.58 c 5.582,0 9.777,-1.383 12.475,-4.16 2.684,-2.777 4.008,-6.673 4.008,-11.7 0,-5.0271 -1.311,-8.7219 -4.008,-11.4993 -2.698,-2.7774 -6.893,-4.1599 -12.475,-4.1599 z m 34.863,16.6522 c 0,1.583 -0.462,2.84 -1.311,3.77 -0.924,0.993 -2.36,1.458 -4.395,1.458 H 489.406 V 96.7946 h 16.807 c 2.035,0 3.483,0.465 4.395,1.4578 0.849,0.9929 1.311,2.1866 1.311,3.6946 z m 19.554,6.208 c 0,4.424 0.587,8.194 1.836,11.235 1.186,3.104 2.884,5.555 5.182,7.34 2.235,1.784 4.982,3.104 8.266,3.895 3.284,0.792 6.955,1.194 11.088,1.194 7.554,0 13.523,-1.256 17.993,-3.77 4.396,-2.45 6.955,-6.673 7.68,-12.555 h -12.475 c -0.661,2.715 -2.097,4.499 -4.332,5.354 -2.236,0.93 -5.182,1.382 -8.866,1.382 -4.133,0 -7.48,-0.791 -10.039,-2.312 -2.56,-1.521 -3.809,-4.625 -3.809,-9.187 v -5.291 c 0,-2.312 0.325,-4.222 1.049,-5.743 0.662,-1.521 1.574,-2.6391 2.822,-3.5062 1.249,-0.8546 2.685,-1.4578 4.395,-1.7846 1.711,-0.3267 3.547,-0.465 5.582,-0.465 3.808,0 6.83,0.465 9.065,1.3824 2.236,0.93 3.609,2.8404 4.071,5.7434 h 12.474 c -0.587,-6.1455 -3.146,-10.5064 -7.554,-13.0199 -4.458,-2.4506 -10.502,-3.6948 -18.056,-3.6948 -4.133,0 -7.817,0.4022 -11.088,1.1939 -3.284,0.8546 -6.044,2.1867 -8.266,4.0341 -2.298,1.9103 -4.009,4.3609 -5.182,7.4022 -1.249,3.0415 -1.836,6.7365 -1.836,11.1725 z m 98.67,-7.603 v 30.325 H 642.48 V 87.1303 H 629.219 L 604.995,117.455 V 87.1303 h -12.337 v 45.5947 h 13.261 z m 38.734,-5.153 v 35.478 h 12.336 V 97.247 h 17.994 V 87.1428 H 650.883 V 97.247 Z m 38.658,-10.1042 v 45.5942 h 41.556 v -9.513 h -29.219 v -9.187 h 22.326 v -9.187 h -22.326 v -8.1936 h 28.957 v -9.5136 z m 67.653,10.1042 v 35.478 h 12.337 V 97.247 h 17.993 V 87.1428 H 757.195 V 97.247 Z M 756.77,18.7008 v 45.5945 h 12.337 V 18.7134 H 756.77 Z M 811.037,3.83355 c -0.125,3.4686 -2.073,4.88872 -5.381,4.88872 -3.309,0 -5.257,-1.42012 -5.382,-4.88872 h -9.078 c 0.225,6.39685 4.158,11.56205 14.46,11.56205 10.301,0 14.234,-5.1652 14.459,-11.56205 z m 6.106,14.86725 -24.224,30.3251 V 18.7134 h -12.337 v 45.5945 h 13.261 l 24.224,-30.3252 v 30.3252 h 12.337 V 18.7134 h -13.261 z"
     fill="#06090F"
     id="path1"
     style="fill:#ffffff;fill-opacity:1"
     sodipodi:nodetypes="ccccccccccccccccccccccccccccccccccccccccccccccccccccccccccccccccccccccccccccccccccccccccssscscssccsscsccccccccccccccccscccsccccccscsccccscscsccccscsccscsscccccccccccccccscscsccccscsccscssccccccccccccccccccccccccccccccccccccscscccscsccscsccscssccsccscscccccccccccccccccccscscscscsccscssscccsccccscsscccsccccscccscccccccccccccccccccccccccccccccccccccccccccccccccsccscccccccccccccc" />
</svg>
